# xmcd
#
# Track frame offsets:
#	150
#	9533
#	23087
#	34876
#	48033
#	59469
#	71037
#	80227
#	93568
#	105654
#	115941
#	127748
#	141589
#	152258
#	162366
#	178008
#	190224
#	203835
#	216929
#	227781
#	239680
#	249746
#	259843
#	270532
#
# Disc length: 3757 seconds
#
# Revision: 4
# Processed by: cddbd v1.4PL0 Copyright (c) Steve Scherf et al.
# Submitted via: MusicManager 7.0.0.0 
#
DISCID=5b0eab18
DTITLE=Various Artist - Country USA: 1962
DYEAR=1988
DGENRE=Country
TTITLE0=Lester Flatt and Earl Scruggs - Ballad of Jed Clampett
TTITLE1=Claude King - Wolverton Mountain
TTITLE2=George Jones - She Thinks I Still Care
TTITLE3=Patsy Cline - Imagine That
TTITLE4=Don Gibson - I Can Mend Your Broken Heart
TTITLE5=Hank Snow - I've Been Everywhere
TTITLE6=Marty Robbins - Ruby Ann
TTITLE7=Carl Butler - Dont't Let Me Cross Over
TTITLE8=Loretta Lynn - Success
TTITLE9=Billy Walker - Charlie's Shoes
TTITLE10=Porter Wagoner - Misery Loves Company
TTITLE11=Willie Nelson - Funny How Time Slips Away
TTITLE12=Don Gibson - Lonesome Number One
TTITLE13=Jonny Horton - Honky-Tonk Man
TTITLE14=Bill Anderson - Mama Sang a Song
TTITLE15=Stonewall Jackson - A Wound Time Can't Erase
TTITLE16=Patsy Cline - She's Got You
TTITLE17=Marty Robbins - Devil Woman
TTITLE18=Johnny Cash - In The Jailhouse Now
TTITLE19=Skeeter Davis - The End of the World
TTITLE20=Wilburn Brothers - Trouble's Back In Town
TTITLE21=Willie Nelson - Touch Me
TTITLE22=Leroy Van Dyke - If a Woman Answers
TTITLE23=Jim Reeves - Adios Amigo
EXTD=YEAR: 1962 ID3G: 2
EXTT0=
EXTT1=
EXTT2=
EXTT3=
EXTT4=
EXTT5=
EXTT6=
EXTT7=
EXTT8=
EXTT9=
EXTT10=
EXTT11=
EXTT12=
EXTT13=
EXTT14=
EXTT15=
EXTT16=
EXTT17=
EXTT18=
EXTT19=
EXTT20=
EXTT21=
EXTT22=
EXTT23=
PLAYORDER=
